# xmcd
#
# Track frame offsets:
# 150
# 15331
# 31683
#
# Disc length: 788 seconds
#
# Revision: 1
# Processed by: cddbd v1.5.2PL0 Copyright (c) Steve Scherf et al.
# Submitted via: CedeCatalogueitor 2.6.0.6 http://personales.ya.com/cdcatalogueitor
#
DISCID=10031203
DTITLE=Mandalas - The More I Try [CD Promo)
DYEAR=1900
DGENRE=
TTITLE0=The More I Try
TTITLE1=The More I Try (Sergi Vila Rmx)
TTITLE2=The More I Try (Sergi Domene Rmx)
EXTD=
EXTT0=
EXTT1=
EXTT2=
PLAYORDER=
